<svg xmlns="http://www.w3.org/2000/svg" enable-background="new 0 0 100 100" viewBox="0 0 100 100" id="young-woman"><g><path fill="#5F2933" d="M28.919,56.375c-0.327-0.897-0.703-1.773-0.864-2.728c-0.386-2.28-0.131-4.514,0.379-6.742
		c0.555-2.425,1.532-4.703,2.394-7.021c0.671-1.802,1.128-3.662,1.502-5.543c0.17-0.854-0.055-1.705-0.113-2.555
		c-0.159-2.362-0.019-4.709,0.301-7.047c0.175-1.276,0.375-2.548,0.672-3.803c0.515-2.277,1.076-4.544,2.222-6.603
		c2.14-3.846,5.422-6.222,9.633-7.373c0.296-0.006,0.532,0.141,0.762,0.302c2.565,1.788,4.558,4.035,5.601,7.033
		c0.286,0.822,0.546,1.655,0.626,2.53c0.014,0.156,0.06,0.311-0.037,0.456c-0.486,0.356-1.068,0.505-1.609,0.742
		c-2.186,0.956-4.01,2.385-5.562,4.181c-1.54,1.782-3.171,3.446-5.474,4.25c-0.793,0.277-1.6,0.501-2.416,0.689
		c-0.381,0.088-0.533,0.279-0.573,0.679c-0.133,1.336-0.271,2.672-0.428,4.006c-0.025,0.214,0.029,0.565-0.389,0.521
		c-0.248-0.276-0.354-0.64-0.577-0.931c-0.185-0.242-0.311-0.601-0.708-0.505c-0.357,0.086-0.378,0.43-0.41,0.72
		c-0.13,1.178-0.267,2.361-0.161,3.545c0.064,0.715,0.076,1.426,0.08,2.141c0.004,0.819,0.017,1.635,0.095,2.454
		c0.107,1.12,0.582,1.89,1.943,1.784c0.121-0.009,0.244-0.004,0.366,0.001c0.458-0.025,0.63,0.25,0.733,0.65
		c0.441,1.702,0.925,3.39,1.511,5.052c0.579,1.645,1.488,3.057,2.697,4.294c0.135,0.138,0.376,0.235,0.252,0.507
		c-0.174,0.188-0.407,0.171-0.632,0.182c-2.104,0.112-4.197,0.32-6.26,0.769c-0.409,0.089-0.806,0.219-1.208,0.33
		c-1.538,0.504-2.789,1.425-3.848,2.632C29.279,56.133,29.186,56.366,28.919,56.375z"></path><path fill="#C04C1D" d="M51.98,17.232c-0.283-2.008-0.921-3.89-2.019-5.602c-1.256-1.958-2.936-3.474-4.917-4.671
		c1.439-0.522,2.941-0.753,4.452-0.869c3.348-0.259,6.631,0.034,9.755,1.382c4.719,2.037,7.658,5.643,9.18,10.48
		c0.277,0.88,0.498,1.777,0.745,2.667c0.285,1.631,0.597,3.258,0.849,4.894c0.332,2.154,0.629,4.313,0.917,6.473
		c0.335,2.507,0.747,5.001,1.213,7.485c0.706,3.761,1.803,7.421,2.85,11.096c0.913,3.203,1.87,6.399,2.402,9.697
		c0.403,2.497,0.55,4.995-0.038,7.489c-0.177,0.751-0.484,1.454-0.775,2.164c-0.217,0.311-0.483,0.191-0.745,0.082
		c-1.369-0.567-2.717-1.183-4.118-1.673c-0.312-0.389-0.231-0.879,0.211-1.271c0.288,0.046,0.328,0.339,0.5,0.509
		c0.179-0.059,0.132-0.225,0.152-0.343c0.35-2.107,0.106-4.175-0.451-6.214c-0.874-3.201-2.015-6.324-2.763-9.561
		c-0.548-2.372-0.949-4.766-0.869-7.207c0.048-1.462,0.198-2.924,0.259-4.386c0.079-1.899,0.102-3.802-0.036-5.705
		c-0.147-2.013-0.496-3.985-1.098-5.908c-0.577-1.843-1.368-3.588-2.5-5.166c-0.113-0.158-0.248-0.292-0.399-0.412
		c-0.209-0.143-0.32-0.362-0.442-0.573c-1.114-1.921-2.643-3.406-4.639-4.393c-2.127-1.052-4.344-1.173-6.622-0.614
		c-0.304,0.075-0.598,0.19-0.913,0.221C52.063,17.302,52.016,17.279,51.98,17.232z"></path><path fill="#101C3C" d="M28.919,56.375c1.105-1.425,2.465-2.507,4.178-3.115c0.078,0.039,0.157,0.076,0.234,0.117
		c1.143,0.62,1.718,1.455,1.411,2.859c-0.267,1.223-0.479,2.468-0.602,3.721c-0.183,1.867,0.06,3.692,0.58,5.486
		c0.06,0.208,0.188,0.372,0.34,0.519c-0.144,0.81,0.247,1.519,0.436,2.266c0.049,0.205,0.151,0.403,0.093,0.624
		c-0.275,0.333-0.362-0.035-0.439-0.155c-0.285-0.44-0.492-0.924-0.709-1.401c-1.409-3.102-2.83-6.199-4.5-9.173
		c-0.074-0.132-0.112-0.298-0.269-0.364c-0.067,0.006-0.104,0.047-0.117,0.095c-0.422,1.482-0.792,2.984-0.82,4.527
		c-0.038,2.113,0.489,4.13,1.4,6.023c1.811,3.767,5.785,6.515,8.313,9.827c1.828,2.396,2.758,5.001,4.96,7.05
		c0.971,0.904,1.365,2.167,2.405,2.997c0.168,0.134,0.341,0.236,0.549,0.281c0.591,0.617,0.86,1.419,1.196,2.172
		c0.338,0.76,0.557,1.57,0.714,2.391c0.039,0.205,0.093,0.411-0.057,0.598c-1.801-0.077-3.568-0.387-5.32-0.787
		c-5.857-1.337-11.123-3.888-15.724-7.76c-3.448-2.902-6.319-6.299-8.568-10.212c1.514-1.582,3.231-2.915,5.055-4.116
		c1.108-0.729,2.264-1.377,3.464-1.936c0.448-0.209,0.571-0.366,0.372-0.872c-0.739-1.872-1.078-3.824-0.896-5.839
		C26.792,60.032,27.502,58.06,28.919,56.375z"></path><path fill="#0C1738" d="M71.903,67.087c-0.077,0.244-0.141,0.493-0.234,0.73c-0.075,0.19-0.054,0.329,0.128,0.433
		c0.965,1.454,1.814,2.974,2.6,4.53c1.061,2.101,2.033,4.243,2.875,6.442c0.392,1.024,0.737,2.067,1.159,3.081
		c-1.801,1.977-3.849,3.667-6.054,5.171c-0.529,0.361-1.045,0.743-1.628,1.017c-0.183-0.291-0.227-0.619-0.245-0.951
		c-0.215-3.985-0.885-7.905-1.683-11.807c-0.125-0.61-0.203-1.235-0.45-1.894c-0.595,0.576-1.049,1.209-1.555,1.794
		c-0.401,0.463-0.855,0.873-1.259,1.331c-0.098,0.111-0.227,0.156-0.361,0.197c-0.198,0.356-0.645,0.512-0.755,0.939
		c-0.374,0.542-0.918,0.908-1.403,1.33c-0.909,0.791-1.8,1.603-2.686,2.418c-2.03,1.867-3.4,4.109-3.705,6.909
		c-0.11,1.006,0.088,1.983,0.312,2.956c0.129,0.559,0.299,1.108,0.361,1.682c-0.962,0.168-1.93,0.283-2.905,0.328
		c-0.232-0.2-0.204-0.478-0.18-0.728c0.115-1.21,0.056-2.43,0.234-3.635c0.061-0.412,0.136-0.823,0.289-1.213
		c0.922-1.957,1.909-3.883,2.902-5.806c1.465-2.838,2.874-5.707,4.157-8.632c0.599-1.366,0.959-2.807,0.918-4.321
		c0.122-0.851,0.077-1.707,0.099-2.561c0.011-0.444-0.138-0.691-0.6-0.736c-0.349-0.034-0.682-0.151-1.005-0.285
		c-1.093-0.456-1.731-1.26-1.847-2.454c-0.003-0.035-0.007-0.07-0.007-0.104c0.022-3.262-0.194-6.521-0.107-9.784
		c0.002-0.07,0.01-0.139,0.021-0.208c0.231-0.533,0.622-0.882,1.187-1.031c1.928,0.512,3.828,1.101,5.602,2.039
		c3.614,1.911,5.6,4.963,6.14,8.96c0.143,1.061,0.126,2.163-0.081,3.238C72.092,66.68,72.076,66.913,71.903,67.087z"></path><path fill="#E37234" d="M54.92,88.081c-0.537,1.847-0.442,3.751-0.507,5.64c-0.615,0.166-1.248,0.12-1.872,0.122
		c-1.444,0.004-2.891,0.091-4.329-0.123c-0.245-1.856-0.922-3.551-1.914-5.129c-0.121-0.052-0.182-0.157-0.241-0.265
		c-1.969-3.625-4.272-7.05-6.348-10.61c-1.443-2.475-2.802-4.996-3.907-7.645c-0.162-0.388-0.278-0.786-0.286-1.209
		c-0.031-0.193-0.062-0.387-0.092-0.58c0.184-0.084,0.309,0.038,0.41,0.147c1.073,1.164,2.519,1.675,3.938,2.201
		c2.999,1.111,6.111,1.691,9.302,1.885c0.626,0.038,1.251,0.098,1.879,0.089c2.627,0.069,5.171-0.342,7.62-1.309
		c0.162-0.064,0.328-0.124,0.506-0.058c0.211,0.181,0.156,0.414,0.102,0.631c-0.447,1.777-0.91,3.55-1.459,5.299
		c-0.058,0.184-0.127,0.412-0.35,0.404c-0.196-0.007-0.227-0.229-0.281-0.397c-0.341-1.068-0.58-2.165-0.938-3.228
		c0.397,1.226,0.678,2.485,1.076,3.71c0.111,0.341,0.113,0.677,0.005,1.027c-0.549,1.785-1.113,3.565-1.68,5.344
		c-0.372,1.167-0.712,2.34-0.582,3.591C54.989,87.771,54.985,87.932,54.92,88.081z"></path><path fill="#21315C" d="M57.319 93.394c-.406-.653-.443-1.419-.602-2.137-.695-3.137.32-5.821 2.319-8.205 1.359-1.621 3.027-2.917 4.61-4.301.257-.225.425-.564.795-.652.085 1.698-.163 3.375-.347 5.053-.296 2.71-.418 5.422-.205 8.144.016.2.154.44-.195.553C61.607 92.526 59.5 93.11 57.319 93.394zM65.195 77.16c1.125-1.171 2.184-2.402 3.276-3.715.438 1.879.818 3.669 1.12 5.474.257 1.536.507 3.074.708 4.618.157 1.202.271 2.413.326 3.623.02.449.195.878.124 1.33-1.789 1.186-3.734 2.059-5.717 2.858-.241.097-.317.038-.328-.192-.019-.418-.037-.837-.054-1.255-.109-2.623.081-5.23.4-7.833.189-1.542.273-3.094.246-4.65C65.293 77.323 65.34 77.201 65.195 77.16z"></path><path fill="#1D2D57" d="M78.43,82.302c-0.369-0.177-0.391-0.575-0.497-0.883c-0.91-2.638-1.993-5.205-3.218-7.709
		c-0.818-1.672-1.693-3.317-2.705-4.884c-0.116-0.179-0.227-0.352-0.214-0.576c1.414,0.397,2.727,1.046,4.068,1.626
		c0.253,0.109,0.477,0.199,0.731,0.04c1.674,0.928,3.295,1.939,4.76,3.175c0.82,0.692,1.585,1.45,2.374,2.178
		c-0.011,0.317-0.239,0.532-0.39,0.774c-1.375,2.204-2.965,4.244-4.745,6.136C78.548,82.229,78.485,82.262,78.43,82.302z"></path><path fill="#FCBBA3" d="M35.611,32.383c0.333-0.411,0.207-0.921,0.272-1.382c0.155-1.106,0.267-2.219,0.338-3.333
		c0.027-0.421,0.197-0.553,0.568-0.635c1.398-0.309,2.765-0.711,4.032-1.408c1.517-0.834,2.668-2.08,3.765-3.369
		c1.972-2.318,4.383-3.967,7.251-4.96c0.049-0.017,0.096-0.042,0.144-0.064l-0.012,0.05c0.088,0.206,0,0.38-0.117,0.534
		c-1.624,2.133-2.373,4.646-3.098,7.167c-0.328,1.141-0.553,2.309-0.833,3.463c-0.08,0.332,0.015,0.578,0.243,0.803
		c0.386,0.38,0.752,0.777,1.097,1.196c1.007,1.22,1.722,2.588,2.039,4.139c0.18,0.882,0.146,1.774-0.184,2.63
		c-0.116,0.301-0.225,0.579,0.265,0.619c0.083,0.007,0.176,0.058,0.163,0.167c-0.009,0.071-0.081,0.106-0.144,0.137
		c-0.063,0.031-0.13,0.068-0.197,0.068c-0.69,0.008-0.9,0.504-1.055,1.044c-0.111,0.385-0.231,0.769-0.235,1.178
		c-0.004,0.522,0.105,1.005,0.454,1.413c0.182,0.212,0.315,0.431,0.085,0.694c-0.23,0.116-0.383-0.074-0.561-0.15
		c-0.348-0.148-0.69-0.314-1.075-0.119c-0.644-0.143-0.835-0.429-0.7-1.086c0.176-0.856,0.635-1.588,1.086-2.312
		c0.684-1.099,1.166-2.264,1.341-3.551c0.043-0.315,0.05-0.626-0.019-0.937c-0.137-0.617-0.527-0.965-1.16-1.022
		c-0.39-0.035-0.768,0.046-1.133,0.168c-0.365,0.122-0.52,0.393-0.467,0.776c0.041,0.298,0.161,0.571,0.268,0.847
		c0.399,1.025,0.245,1.584-0.67,2.202c-1.66,1.123-3.567,2.176-4.658,3.924c-1.09,1.746-0.591,3.475,0.053,5.273
		c0.428,1.197,0.506,2.266,0.673,3.501c0.123,0.911,0.703,1.545,1.255,2.237c0.731,0.917,1.586,1.72,2.42,2.541
		c0.364,0.359,0.809,0.606,1.246,0.864c0.13,0.077,0.324,0.171,0.246,0.347c-0.081,0.183-0.281,0.087-0.419,0.039
		c-0.777-0.269-1.529-0.599-2.243-1.008c-1.273-0.728-2.561-1.434-3.733-2.324c-0.278-0.251-0.649-0.397-0.841-0.746
		c-0.551-0.644-1.184-1.214-1.673-1.914c-1.023-1.464-1.54-3.143-2.07-4.816c-0.335-1.059-0.646-2.127-0.868-3.216
		c-0.062-0.303-0.216-0.402-0.498-0.37c0.204-0.241,0.152-0.499,0.081-0.778c-0.691-2.734-0.846-5.519-0.771-8.324
		C35.559,32.512,35.577,32.446,35.611,32.383z"></path><path fill="#0A1434" d="M41.356,52.002c0.311,0.166,0.601,0.361,0.852,0.612c0.302,0.637,0.211,1.333,0.255,1.999
		c0.154,2.311,0.265,4.625,0.409,6.937c0.102,1.638-0.443,2.422-1.616,2.994c-1.776,0.866-3.651,1.374-5.604,1.621
		c-0.19,0.024-0.386,0.033-0.542-0.117c-0.303,0.021-0.418-0.158-0.495-0.423c-0.555-1.915-0.839-3.849-0.591-5.85
		c0.168-1.356,0.439-2.694,0.635-4.045c0.136-0.938-0.149-1.468-1.185-2.087c-0.16-0.095-0.372-0.138-0.377-0.384
		c1.296-0.478,2.648-0.699,4.011-0.85C38.522,52.252,39.94,52.136,41.356,52.002z"></path><path fill="#FDD0BB" d="M35.611,32.383c0.124,0.187,0.1,0.398,0.108,0.606c0.047,1.215-0.041,2.429,0.083,3.649
		c0.15,1.468,0.366,2.917,0.71,4.35c0.071,0.296,0.178,0.599-0.265,0.697c-1.932,0.114-2.454-0.287-2.539-2.196
		c-0.109-2.455-0.288-4.913-0.08-7.373c0.028-0.328,0.096-0.654,0.161-0.978c0.042-0.209,0.121-0.405,0.377-0.442
		c0.257-0.037,0.482,0,0.651,0.228C35.149,31.374,35.436,31.848,35.611,32.383z"></path><path fill="#FDDCCE" d="M35.11,66.049c2.216-0.168,4.318-0.744,6.3-1.753c0.952-0.485,1.342-1.292,1.295-2.317
		c-0.095-2.058-0.216-4.116-0.326-6.173c-0.057-1.063-0.114-2.127-0.171-3.19c0.977,0.665,1.968,1.305,2.996,1.89
		c1.066,0.606,2.135,1.198,3.347,1.496c-1.314-0.601-2.216-1.687-3.156-2.703c-0.817-0.884-1.766-1.725-2.048-2.97
		c-0.175-0.774-0.201-1.58-0.323-2.367c-0.152-0.985-0.469-1.935-0.855-2.842c-0.737-1.735-0.281-3.173,0.885-4.518
		c1.202-1.385,2.715-2.367,4.225-3.36c0.871-0.573,1.005-1.028,0.637-1.988c-0.105-0.275-0.2-0.556-0.274-0.84
		c-0.14-0.539,0.004-0.837,0.52-1.018c0.275-0.097,0.572-0.165,0.862-0.179c1.353-0.064,1.821,0.759,1.663,2.138
		c-0.198,1.719-1.098,3.136-1.939,4.577c-0.178,0.306-0.315,0.625-0.422,0.95c-0.259,0.786-0.182,0.95,0.501,1.348
		c0.375-0.081,0.692,0.12,1.031,0.213c0.175,0.048,0.325,0.204,0.529,0.122c0.039-0.195,0.158-0.375-0.059-0.568
		c-0.585-0.522-0.607-1.226-0.538-1.931c0.032-0.325,0.159-0.64,0.236-0.961c0.178-0.74,0.658-1.093,1.458-1.059
		c-0.064-0.071-0.079-0.104-0.096-0.105c-0.66-0.035-0.675-0.04-0.442-0.659c0.552-1.466,0.314-2.876-0.278-4.262
		c-0.583-1.365-1.427-2.553-2.512-3.562c-0.388-0.361-0.462-0.69-0.331-1.235c0.407-1.69,0.766-3.391,1.315-5.042
		c0.638-1.918,1.307-3.825,2.602-5.432c0.105-0.131,0.151-0.309,0.225-0.465c3.608-1.374,7.591-0.698,10.647,2.367
		c0.847,0.849,1.512,1.824,2.093,2.865c0.406,0.385,0.588,0.888,0.732,1.408c0.363,1.314,0.483,2.669,0.616,4.016
		c0.125,1.26,0.28,2.522,0.235,3.794c0.36,2.952,0.268,5.883-0.399,8.788c-0.086,0.374-0.153,0.753-0.229,1.128
		c-0.576,2.253-1.242,4.479-2.123,6.633c-0.606,1.481-1.553,2.726-2.725,3.805c-0.103,0.095-0.208,0.19-0.364,0.18
		c-0.378,0.26-0.735,0.546-1.055,0.876c-0.068,0.172-0.207,0.276-0.35,0.378c-1.298,0.924-2.66,1.743-4.117,2.391
		c-0.952,0.423-1.959,0.627-3.004,0.636c-0.712,0.006-0.735,0.027-0.735,0.74c-0.002,4.752,0.001,9.503-0.004,14.255
		c0,0.414,0.052,0.848-0.266,1.194c-4.7-0.087-9.24-0.899-13.509-2.959c-0.767-0.37-1.379-0.927-1.988-1.497
		c-0.308-0.632-0.442-1.315-0.567-1.999C34.834,66.162,34.844,66.16,35.11,66.049z"></path><path fill="#5F2933" d="M60.452,52.267c2.574-2.161,3.516-5.199,4.42-8.254c0.227-0.768,0.422-1.545,0.631-2.318
		c0.318-0.202,0.676-0.137,1.021-0.145c0.856-0.019,1.226-0.311,1.452-1.144c0.083-0.307,0.103-0.618,0.102-0.933
		c-0.005-2.058,0.037-4.118-0.112-6.173c-0.044-0.609-0.098-1.219-0.261-1.811c-0.075-0.27-0.165-0.557-0.508-0.592
		c-0.349-0.036-0.539,0.18-0.678,0.47c-0.077,0.16-0.101,0.395-0.376,0.347c-0.005-1.689-0.204-3.362-0.391-5.037
		c-0.161-1.436-0.355-2.861-1.043-4.164c0.301,0.072,0.441,0.323,0.6,0.548c1.535,2.171,2.451,4.605,3.019,7.179
		c0.383,1.736,0.619,3.495,0.64,5.276c0.023,1.955,0.027,3.909-0.115,5.861c-0.066,0.902-0.162,1.804-0.188,2.708
		c-0.083,2.933,0.457,5.783,1.184,8.608c0.721,2.801,1.702,5.523,2.459,8.313c0.571,2.103,0.783,4.236,0.43,6.403
		c-0.017,0.102-0.049,0.203-0.083,0.302c-0.031,0.092,0.014,0.24-0.12,0.26c-0.16,0.024-0.173-0.128-0.224-0.237
		c-0.109-0.232-0.15-0.509-0.408-0.648c0.196-1.047,0.259-2.104,0.215-3.167c-0.102-2.483-0.972-4.679-2.505-6.617
		c-1.858-2.347-4.452-3.488-7.201-4.383C61.757,52.707,61.052,52.641,60.452,52.267z"></path><path fill="#21315C" d="M35.517,68.861c1.927,5.361,5.108,10.045,8.018,14.877c0.872,1.448,1.713,2.914,2.562,4.375
		c0.086,0.148,0.136,0.318,0.202,0.478c-0.155,0.105-0.277,0.072-0.413-0.058c-0.378-0.361-0.776-0.699-1.155-1.059
		c-0.86-0.817-2.161-2.951-3.022-3.766c-2.527-2.391-3.294-4.192-5.333-7c-2.018-2.779-4.924-5.188-6.39-8.306
		c-0.698-1.486-1.107-3.057-1.315-4.699c-0.261-2.065,0.306-3.995,0.753-5.955c0.028-0.123,0.048-0.254,0.199-0.267
		c0.153-0.013,0.189,0.128,0.249,0.231c1.429,2.44,2.571,5.023,3.789,7.568c0.497,1.038,0.967,2.088,1.461,3.127
		C35.208,68.587,35.257,68.822,35.517,68.861z"></path><path fill="#FCBBA2" d="M50.92,72.737c0.161-0.776,0.104-1.562,0.105-2.345c0.003-4.453,0.009-8.906-0.008-13.358
		c-0.002-0.48,0.084-0.685,0.62-0.655c2.127,0.119,3.91-0.833,5.649-1.893c0.712-0.434,1.408-0.895,2.112-1.343
		c0.044,3.215,0.131,6.431,0.115,9.646c-0.01,2.027,1.222,2.935,2.814,3.142c0.466,0.061,0.659,0.195,0.643,0.691
		c-0.032,0.959,0.05,1.922-0.095,2.878c-0.092,0.103-0.173,0.22-0.299,0.287c-1.046,0.553-2.098,1.092-3.21,1.503
		c-0.082,0.03-0.169,0.042-0.253,0.002c-1.206,0.378-2.383,0.853-3.634,1.088C53.969,72.662,52.454,72.812,50.92,72.737z"></path><path fill="#C44E1C" d="M59.11,71.292c1.275-0.555,2.535-1.139,3.763-1.792c0.016,1.896-0.598,3.629-1.385,5.315
		c-1.853,3.968-3.851,7.864-5.841,11.764c-0.253,0.495-0.485,1.002-0.726,1.503c-0.319-1.419,0.071-2.75,0.493-4.081
		c0.583-1.838,1.148-3.682,1.73-5.52c0.062-0.195,0.057-0.36,0.002-0.555c-0.373-1.302-0.729-2.609-1.095-3.914
		c-0.054-0.194-0.153-0.381,0.028-0.678c0.518,1.422,0.802,2.824,1.367,4.187c0.187-0.579,0.396-1.152,0.558-1.738
		c0.369-1.338,0.717-2.682,1.066-4.025C59.106,71.609,59.097,71.447,59.11,71.292z"></path><path fill="#FDDCCE" d="M46.942,33.247c-0.04,0.165,0.249,0.248,0.084,0.464c-0.652,0.854-1.21,1.794-2.097,2.436
		c-1.503,1.089-3.087,0.833-4.653,0.17c-0.804-0.34-1.528-0.82-2.036-1.571c-0.273-0.404-0.304-0.815-0.098-1.231
		c0.207-0.417,0.567-0.564,1.038-0.526c0.37,0.03,0.71,0.156,1.065,0.231c0.405-0.118,0.691-0.433,1.048-0.632
		c0.269-0.151,0.518-0.358,0.862-0.269c0.178,0.126,0.098,0.318,0.119,0.481c0.161,1.294,1.224,1.922,2.436,1.436
		c0.549-0.22,0.872-0.611,0.93-1.209c0.018-0.188-0.007-0.386,0.112-0.554C46.396,32.349,46.627,32.863,46.942,33.247z"></path><path fill="#5C2833" d="M42.203,27.85c1.676,0.123,3.296,0.513,4.885,1.05c0.172,0.058,0.316,0.155,0.418,0.301
		c0.161,0.232,0.18,0.477,0.056,0.741c-0.123,0.262-0.341,0.264-0.574,0.247c-1.331-0.093-2.604-0.465-3.885-0.804
		c-0.168-0.044-0.337-0.09-0.501-0.15c-1.212-0.443-2.327-0.268-3.359,0.503c-0.136,0.102-0.301,0.343-0.487,0.144
		c-0.209-0.224,0.056-0.376,0.185-0.515C39.82,28.42,40.854,27.801,42.203,27.85z"></path><path fill="#542D33" d="M46.942,33.247c-0.372-0.275-0.675-0.652-1.152-0.77c-0.445-0.02-0.838-0.309-1.299-0.249
		c-0.305-0.044-0.609-0.024-0.914-0.001c-0.504-0.132-0.976,0.188-1.476,0.104c-0.533,0.14-0.92,0.533-1.383,0.795
		c-0.141,0.08-0.268,0.309-0.473,0.094c0.453-0.548,0.854-1.14,1.467-1.542C43.612,30.436,46.464,31.83,46.942,33.247z"></path><path fill="#C74C40" d="M50.387,42.562c-0.027,0.09,0.124,0.363-0.165,0.191c-0.436-0.261-0.934-0.34-1.395-0.525
		c0.008-0.327,0.253-0.232,0.412-0.201C49.663,42.108,50.055,42.274,50.387,42.562z"></path><path fill="#EC6B4A" d="M45.933,47.857c1.122-0.432,2.247-0.855,3.364-1.299c0.437-0.174,0.832-0.194,1.237,0.087
		c0.475,0.329,0.973,0.367,1.457,0.006c0.398-0.297,0.797-0.265,1.231-0.072c1.134,0.502,2.316,0.871,3.647,1.294
		c-1.409,0.738-2.471,1.872-3.991,2.213C50.142,50.702,47.946,49.573,45.933,47.857z"></path><path fill="#FDD0BB" d="M66.143,31.715c0.217-0.065,0.185-0.274,0.241-0.428c0.131-0.36,0.346-0.589,0.76-0.594
		c0.419-0.005,0.564,0.264,0.674,0.6c0.208,0.636,0.256,1.297,0.296,1.954c0.128,2.14,0.082,4.284,0.111,6.426
		c0.005,0.368-0.059,0.728-0.187,1.073c-0.243,0.654-0.644,0.946-1.334,0.96c-0.4,0.008-0.801-0.006-1.201-0.01
		c0.194-0.979,0.458-1.951,0.566-2.94c0.191-1.752,0.442-3.507,0.188-5.281C66.174,32.895,66.178,32.302,66.143,31.715z"></path><path fill="#5D2933" d="M60.157,27.463c1.448-0.005,2.34,0.632,3.147,1.442c0.093,0.093,0.152,0.203,0.069,0.326
		c-0.092,0.135-0.209,0.083-0.32,0.016c-0.075-0.045-0.157-0.078-0.226-0.13c-0.974-0.74-1.988-0.74-3.095-0.28
		c-1.32,0.549-2.73,0.808-4.127,1.097c-0.282,0.059-0.552,0.028-0.649-0.277c-0.11-0.347-0.07-0.693,0.234-0.953
		c0.052-0.044,0.119-0.076,0.184-0.098C57.012,28.068,58.666,27.601,60.157,27.463z"></path><path fill="#6D9EB0" d="M58.161,34.434c-0.997-0.34-1.392-1.106-1.484-2.089c0.048-0.247,0.258-0.315,0.451-0.378
		c0.943-0.307,1.897-0.384,2.862-0.1c0.217,0.064,0.432,0.136,0.554,0.353C60.832,33.691,59.592,34.844,58.161,34.434z"></path><path fill="#5C2B34" d="M60.475,32.253c-1.282-0.624-2.545-0.508-3.797,0.092c-0.419,0.149-0.742,0.441-1.075,0.718
		c0.221-0.714,1.1-1.447,2.126-1.773c1.813-0.575,3.372-0.018,4.38,1.571c0.056,0.088,0.205,0.186,0.071,0.304
		c-0.038,0.034-0.161-0.027-0.244-0.045C61.357,32.986,60.952,32.56,60.475,32.253z"></path><path fill="#FAFCFB" d="M60.475,32.253c0.586,0.123,0.984,0.562,1.461,0.868c-0.258,0.573-0.857,0.71-1.326,0.995
		c-0.679,0.412-1.45,0.526-2.243,0.452c-0.093-0.009-0.163-0.048-0.205-0.133C59.695,34.536,60.475,33.801,60.475,32.253z"></path><path fill="#CA4F42" d="M52.376,42.874c-0.057-0.063-0.111-0.105-0.141-0.16c-0.052-0.097,0.01-0.176,0.083-0.219
		c0.422-0.247,0.863-0.451,1.342-0.56c0.088-0.02,0.173,0.008,0.235,0.08c0.064,0.075,0.01,0.139-0.042,0.172
		C53.397,42.48,52.83,42.525,52.376,42.874z"></path><path fill="#68A4B2" d="M44.547,32.152c0.472-0.113,0.864,0.082,1.243,0.325c0.068,1.125-0.36,1.764-1.333,1.99
		c-0.975,0.226-1.808-0.16-2.172-0.986c-0.164-0.372-0.094-0.772-0.185-1.15c0.477-0.147,0.941-0.406,1.464-0.182
		c0.004,0.172-0.127,0.277-0.205,0.408c-0.164,0.274-0.124,0.526,0.069,0.766c0.209,0.26,0.479,0.331,0.788,0.232
		c0.31-0.099,0.474-0.314,0.494-0.652C44.728,32.632,44.558,32.411,44.547,32.152z"></path><path fill="#141623" d="M44.547,32.152c0.442,0.49,0.446,1.044,0.01,1.399c-0.401,0.327-0.974,0.251-1.281-0.169
		c-0.311-0.426-0.215-0.836,0.288-1.234C43.892,32.022,44.22,32.025,44.547,32.152z"></path><path fill="#111729" d="M58.691,33.652c-0.507,0.006-0.928-0.375-0.94-0.849c-0.013-0.5,0.374-0.875,0.898-0.872
		c0.503,0.003,0.968,0.41,0.956,0.837C59.592,33.243,59.174,33.647,58.691,33.652z"></path><g><path fill="#FFF" d="M63.84,91.77c-0.06-2.428-0.066-5.21,0.035-7.634c0.092-2.171,0.066-3.742,0.288-5.904l1.279-1.331
			c-0.219,2.143-0.478,5.127-0.567,7.278c-0.102,2.403-0.122,4.841-0.063,7.248L63.84,91.77z"></path></g><g><path fill="#FFF" d="M38.77,91.77c0.06-2.428,0.066-5.21-0.035-7.634c-0.092-2.171-0.201-2.536-0.422-4.698l-1.344-2.156
			c0.219,2.143,0.676,4.745,0.766,6.896c0.102,2.403,0.122,4.841,0.063,7.248L38.77,91.77z"></path></g></g></svg>